<svg xmlns="http://www.w3.org/2000/svg" version="1.1" xmlns:xlink="http://www.w3.org/1999/xlink" xmlns:svgjs="http://svgjs.dev/svgjs" width="2000" height="1500" viewBox="0 0 2000 1500"><rect width="2000" height="1500" fill="#ffffff"></rect><g transform="matrix(0.75,0,0,0.75,249.090909090909,282.7536437246964)"><svg viewBox="0 0 396 247" data-background-color="#ffffff" preserveAspectRatio="xMidYMid meet" height="1247" width="2000" xmlns="http://www.w3.org/2000/svg" xmlns:xlink="http://www.w3.org/1999/xlink"><g id="tight-bounds" transform="matrix(1,0,0,1,0.2400000000000091,-0.09999999999999432)"><svg viewBox="0 0 395.52 247.2" height="247.2" width="395.52"><g><svg></svg></g><g><svg viewBox="0 0 395.52 247.2" height="247.2" width="395.52"><g transform="matrix(1,0,0,1,75.54432000000001,105.83146032790437)"><svg viewBox="0 0 244.43135999999996 35.53707934419126" height="35.53707934419126" width="244.43135999999996"><g><svg viewBox="0 0 330.6191270919584 48.06763809755909" height="35.53707934419126" width="244.43135999999996"><g><rect width="3.1366057955429776" height="34.95512032420179" x="252.64236993597638" y="6.556258886678648" fill="#ddb967" opacity="1" stroke-width="0" stroke="transparent" fill-opacity="1" class="rect-yte-0" data-fill-palette-color="primary" rx="1%" id="yte-0" data-palette-color="#ddb967"></rect></g><g transform="matrix(1,0,0,1,0,6.643211922310989)"><svg viewBox="0 0 244.43135999999998 34.78121425293711" height="34.78121425293711" width="244.43135999999998"><g id="textblocktransform"><svg viewBox="0 0 244.43135999999998 34.78121425293711" height="34.78121425293711" width="244.43135999999998" id="textblock"><g><svg viewBox="0 0 244.43135999999998 34.78121425293711" height="34.78121425293711" width="244.43135999999998"><g transform="matrix(1,0,0,1,0,0)"><svg width="244.43135999999998" viewBox="2.05 -38.26 352.09 50.269999999999996" height="34.78121425293711" data-palette-color="#ddb967"><g class="wordmark-text-0" data-fill-palette-color="primary" id="text-0"><path d="M19.7 0L16.5 0 12.45-31.64 12.26-31.64Q12.08-29.88 11.56-26.82 11.04-23.75 10.64-21.95L10.64-21.95 6.01 0 2.05 0 9.59-35.69 15.55-35.69 19.19-6.3 19.41-6.3 35.5-35.69 41.99-35.69 34.59 0 30.35 0Q33.42-14.4 35.06-22.11 36.69-29.81 37.35-31.69L37.35-31.69 37.21-31.69 19.7 0ZM57.44-27.25L57.44-27.25Q59.69-27.25 61.45-26.04 63.21-24.83 64.18-22.56L64.18-22.56 64.45-22.56 66.09-26.76 69.19-26.76 63.5 0 60.25 0 60.89-5.1 60.69-5.1Q56.32 0.49 51.49 0.49L51.49 0.49Q48.09 0.49 46.16-1.93 44.24-4.35 44.24-8.54L44.24-8.54Q44.24-13.62 45.97-17.97 47.7-22.31 50.75-24.78 53.81-27.25 57.44-27.25ZM52.81-2.91L52.81-2.91Q55.17-2.91 57.52-5.16 59.86-7.42 61.33-11.05 62.79-14.67 62.79-18.31L62.79-18.31Q62.79-20.83 61.42-22.31 60.06-23.8 57.83-23.8L57.83-23.8Q55.3-23.8 53.11-21.7 50.93-19.6 49.68-16.02 48.44-12.43 48.44-8.45L48.44-8.45Q48.44-5.66 49.58-4.28 50.73-2.91 52.81-2.91ZM87.89-26.76L96.94-26.76 96.33-24.15 91.18-23.56Q92.18-22.05 92.18-19.7L92.18-19.7Q92.18-15.04 89.34-12.27 86.49-9.5 81.73-9.5L81.73-9.5Q80.39-9.5 79.68-9.69L79.68-9.69Q76.29-8.4 76.29-6.49L76.29-6.49Q76.29-5.49 77.09-5.16 77.9-4.83 79.44-4.64L79.44-4.64 82.29-4.3Q86.71-3.76 88.7-2.15 90.69-0.54 90.69 2.59L90.69 2.59Q90.69 7.08 87.13 9.55 83.56 12.01 77.09 12.01L77.09 12.01Q72.36 12.01 69.67 10.22 66.99 8.42 66.99 5.15L66.99 5.15Q66.99 2.59 68.75 0.71 70.5-1.17 74.43-2.49L74.43-2.49Q72.53-3.49 72.53-5.44L72.53-5.44Q72.53-7.13 73.77-8.34 75.02-9.55 77.24-10.6L77.24-10.6Q75.7-11.38 74.73-12.9 73.75-14.43 73.75-16.46L73.75-16.46Q73.75-21.19 76.67-24.22 79.58-27.25 84.13-27.25L84.13-27.25Q86.03-27.25 87.89-26.76L87.89-26.76ZM70.94 4.76L70.94 4.76Q70.94 6.64 72.53 7.74 74.12 8.84 77.24 8.84L77.24 8.84Q81.68 8.84 84.19 7.29 86.69 5.74 86.69 2.91L86.69 2.91Q86.69 1.39 85.37 0.51 84.05-0.37 80.88-0.71L80.88-0.71 77-1.1Q74.07-0.49 72.5 1.05 70.94 2.59 70.94 4.76ZM77.73-16.6L77.73-16.6Q77.73-14.53 78.83-13.44 79.93-12.35 81.88-12.35L81.88-12.35Q83.81-12.35 85.25-13.38 86.69-14.4 87.46-16.2 88.23-17.99 88.23-20.09L88.23-20.09Q88.23-22.09 87.15-23.14 86.08-24.19 84.08-24.19L84.08-24.19Q82.17-24.19 80.74-23.21 79.32-22.22 78.52-20.45 77.73-18.68 77.73-16.6ZM117.08 0L112.93 0 116.55-16.89Q117.03-19.43 117.03-20.41L117.03-20.41Q117.03-21.95 116.17-22.88 115.3-23.8 113.4-23.8L113.4-23.8Q111.22-23.8 109.16-22.34 107.1-20.87 105.52-18.16 103.95-15.45 103.14-11.6L103.14-11.6 100.68 0 96.57 0 102.29-26.76 105.68-26.76 105.14-21.8 105.39-21.8Q107.73-24.78 109.92-26.01 112.1-27.25 114.45-27.25L114.45-27.25Q117.55-27.25 119.34-25.55 121.14-23.85 121.14-20.8L121.14-20.8Q121.14-18.87 120.57-16.41L120.57-16.41 117.08 0ZM139.69-27.1L139.69-27.1Q144.33-27.1 147.01-24.35 149.7-21.61 149.7-16.8L149.7-16.8Q149.7-12.21 147.94-8.13 146.18-4.05 143.18-1.83 140.18 0.39 136.39 0.39L136.39 0.39Q131.7 0.39 129.04-2.37 126.38-5.13 126.38-9.91L126.38-9.91Q126.38-14.55 128.16-18.64 129.95-22.73 132.97-24.91 136-27.1 139.69-27.1ZM145.45-17.36L145.45-17.36Q145.45-20.17 143.92-21.91 142.4-23.66 139.78-23.66L139.78-23.66Q137.12-23.66 135.01-21.85 132.9-20.04 131.74-16.83 130.58-13.62 130.58-9.69L130.58-9.69Q130.58-6.49 132.13-4.75 133.68-3 136.59-3L136.59-3Q139.13-3 141.15-4.79 143.18-6.57 144.31-9.85 145.45-13.13 145.45-17.36ZM165.64-37.99L157.53 0 153.43 0 161.54-37.99 165.64-37.99ZM175.99-26.76L170.27 0 166.17 0 171.88-26.76 175.99-26.76ZM173.03-33.59L173.03-33.59Q173.03-34.96 173.81-35.83 174.59-36.69 175.84-36.69L175.84-36.69Q177.99-36.69 177.99-34.5L177.99-34.5Q177.99-33.15 177.17-32.23 176.35-31.3 175.28-31.3L175.28-31.3Q174.3-31.3 173.67-31.9 173.03-32.5 173.03-33.59ZM193.02-27.25L193.02-27.25Q195.27-27.25 197.03-26.04 198.79-24.83 199.76-22.56L199.76-22.56 200.03-22.56 201.67-26.76 204.77-26.76 199.08 0 195.83 0 196.47-5.1 196.27-5.1Q191.9 0.49 187.07 0.49L187.07 0.49Q183.67 0.49 181.75-1.93 179.82-4.35 179.82-8.54L179.82-8.54Q179.82-13.62 181.55-17.97 183.28-22.31 186.34-24.78 189.39-27.25 193.02-27.25ZM188.39-2.91L188.39-2.91Q190.75-2.91 193.1-5.16 195.44-7.42 196.91-11.05 198.37-14.67 198.37-18.31L198.37-18.31Q198.37-20.83 197-22.31 195.64-23.8 193.42-23.8L193.42-23.8Q190.88-23.8 188.69-21.7 186.51-19.6 185.26-16.02 184.02-12.43 184.02-8.45L184.02-8.45Q184.02-5.66 185.16-4.28 186.31-2.91 188.39-2.91Z" fill="#ddb967" data-fill-palette-color="primary"></path><path d="M240.75-32.5L240.75-32.5Q236.51-32.5 233.15-30.13 229.79-27.76 227.83-23.18 225.86-18.6 225.86-13.21L225.86-13.21Q225.86-8.64 228.24-5.92 230.62-3.2 234.8-3.2L234.8-3.2Q238.19-3.2 242.66-4.59L242.66-4.59 242.66-0.95Q240.56-0.2 238.65 0.15 236.75 0.49 234.06 0.49L234.06 0.49Q228.16 0.49 224.79-3.16 221.42-6.81 221.42-13.11L221.42-13.11Q221.42-19.48 223.99-24.96 226.57-30.44 230.91-33.33 235.26-36.21 240.75-36.21L240.75-36.21Q245.56-36.21 249.25-34.25L249.25-34.25 247.57-30.81Q244.2-32.5 240.75-32.5ZM262.7-27.1L262.7-27.1Q267.34-27.1 270.02-24.35 272.71-21.61 272.71-16.8L272.71-16.8Q272.71-12.21 270.95-8.13 269.19-4.05 266.19-1.83 263.19 0.39 259.4 0.39L259.4 0.39Q254.72 0.39 252.06-2.37 249.39-5.13 249.39-9.91L249.39-9.91Q249.39-14.55 251.18-18.64 252.96-22.73 255.99-24.91 259.01-27.1 262.7-27.1ZM268.46-17.36L268.46-17.36Q268.46-20.17 266.94-21.91 265.41-23.66 262.8-23.66L262.8-23.66Q260.14-23.66 258.02-21.85 255.91-20.04 254.75-16.83 253.59-13.62 253.59-9.69L253.59-9.69Q253.59-6.49 255.14-4.75 256.69-3 259.6-3L259.6-3Q262.14-3 264.16-4.79 266.19-6.57 267.33-9.85 268.46-13.13 268.46-17.36ZM272.51 12.01L272.51 12.01Q270.83 12.01 269.46 11.5L269.46 11.5 269.46 8.06Q271.02 8.59 272.19 8.59L272.19 8.59Q274.05 8.59 275.05 7.08 276.05 5.57 276.66 2.76L276.66 2.76 282.2-23.66 277.49-23.66 277.81-25.29 282.84-26.9 283.4-29.35Q284.52-34.23 286.51-36.24 288.5-38.26 292.41-38.26L292.41-38.26Q293.39-38.26 294.8-37.98 296.22-37.7 297-37.35L297-37.35 295.95-34.2Q294.09-34.91 292.6-34.91L292.6-34.91Q290.48-34.91 289.35-33.73 288.21-32.54 287.5-29.39L287.5-29.39 286.89-26.76 292.7-26.76 292.09-23.66 286.31-23.66 280.64 3.15Q279.69 7.76 277.71 9.89 275.73 12.01 272.51 12.01ZM288.16 12.01L288.16 12.01Q286.47 12.01 285.11 11.5L285.11 11.5 285.11 8.06Q286.67 8.59 287.84 8.59L287.84 8.59Q289.7 8.59 290.7 7.08 291.7 5.57 292.31 2.76L292.31 2.76 297.85-23.66 293.14-23.66 293.46-25.29 298.49-26.9 299.05-29.35Q300.17-34.23 302.16-36.24 304.15-38.26 308.06-38.26L308.06-38.26Q309.03-38.26 310.45-37.98 311.86-37.7 312.65-37.35L312.65-37.35 311.6-34.2Q309.74-34.91 308.25-34.91L308.25-34.91Q306.13-34.91 304.99-33.73 303.86-32.54 303.15-29.39L303.15-29.39 302.54-26.76 308.35-26.76 307.74-23.66 301.95-23.66 296.29 3.15Q295.34 7.76 293.36 9.89 291.38 12.01 288.16 12.01ZM318.36 0.49L318.36 0.49Q313.86 0.49 311.3-2.17 308.74-4.83 308.74-9.55L308.74-9.55Q308.74-14.14 310.56-18.35 312.37-22.56 315.38-24.9 318.38-27.25 321.99-27.25L321.99-27.25Q325.73-27.25 327.61-25.62 329.49-24 329.49-21.09L329.49-21.09Q329.49-16.7 325.44-14.2 321.38-11.69 313.84-11.69L313.84-11.69 313.03-11.69 312.94-9.74Q312.94-6.54 314.44-4.75 315.94-2.95 319.09-2.95L319.09-2.95Q320.63-2.95 322.25-3.39 323.87-3.83 326.29-5L326.29-5 326.29-1.44Q324-0.37 322.24 0.06 320.48 0.49 318.36 0.49ZM321.75-23.75L321.75-23.75Q319.24-23.75 317.03-21.46 314.82-19.17 313.64-15.09L313.64-15.09 313.94-15.09Q319.5-15.09 322.47-16.54 325.44-17.99 325.44-20.75L325.44-20.75Q325.44-22.05 324.55-22.9 323.65-23.75 321.75-23.75ZM343.01 0.49L343.01 0.49Q338.52 0.49 335.96-2.17 333.39-4.83 333.39-9.55L333.39-9.55Q333.39-14.14 335.21-18.35 337.03-22.56 340.03-24.9 343.04-27.25 346.65-27.25L346.65-27.25Q350.38-27.25 352.26-25.62 354.14-24 354.14-21.09L354.14-21.09Q354.14-16.7 350.09-14.2 346.04-11.69 338.5-11.69L338.5-11.69 337.69-11.69 337.59-9.74Q337.59-6.54 339.09-4.75 340.59-2.95 343.74-2.95L343.74-2.95Q345.28-2.95 346.91-3.39 348.53-3.83 350.95-5L350.95-5 350.95-1.44Q348.65-0.37 346.89 0.06 345.14 0.49 343.01 0.49ZM346.41-23.75L346.41-23.75Q343.89-23.75 341.68-21.46 339.47-19.17 338.3-15.09L338.3-15.09 338.59-15.09Q344.16-15.09 347.13-16.54 350.09-17.99 350.09-20.75L350.09-20.75Q350.09-22.05 349.2-22.9 348.31-23.75 346.41-23.75Z" fill="#97978d" data-fill-palette-color="secondary"></path></g></svg></g></svg></g></svg></g></svg></g><g transform="matrix(1,0,0,1,263.9899856674957,0)"><svg viewBox="0 0 66.62914142446267 48.06763809755909" height="48.06763809755909" width="66.62914142446267"><g><svg xmlns="http://www.w3.org/2000/svg" xml:space="preserve" viewBox="5 17.6 90.1 65" x="0" y="0" height="48.06763809755909" width="66.62914142446267" class="icon-icon-0" data-fill-palette-color="accent" id="icon-0"><path d="M79.2 40c0.5-1-0.8-1.9-1.6-1.2-0.5 0.5-2 2.4-2.8 3.6-2.5 3.7-5.7 5-7.3 5.5-0.9-1.1-1.8-2.1-2.6-2.9-2.5-2.6-5.7-9.2-6.6-11.1-0.2-0.3-0.5-0.5-0.8-0.5-0.6 0-1 0.6-0.9 1.2 0.4 1.4 1.3 3.8 2.6 6.6-1.8 1.7-8.1 8.2-8.1 11.1 0 3.4 0.6 4.1 0.6 4.1S48.3 55 38 38.4c-0.1-0.2-0.3-0.3-0.5-0.4l-0.4-0.1c-0.8-0.2-1.4 0.5-1.1 1.2 1.7 3.7 5.9 11.9 11.5 17.8 0 0 3.5 3.3 3.5 7.8 0 1.9-0.5 3-1 3.8-0.7 0.9-1.9 1-2.8 0.5-2.1-1.3-6.8-3.5-10.6-5.3-9.7-4.7-8.2-4.6-13.4-15-0.3-0.6-0.9-0.8-1.5-0.6l-0.4 0.2c-0.6 0.2-0.9 0.9-0.6 1.5 1.1 2.6 3.9 9.4 5.5 12.1 2 3.3 6.4 4.2 10.2 6.2s8.7 6.3 9.1 8.3c0.3 1.2 0.2 3.4 0.1 4.8 0 0.8 0.5 1.4 1.3 1.4H53c0.7 0 1.3-0.6 1.3-1.3V81c0-1.7 0.6-3.2 1.8-4.4 1.7-1.8 4.4-4.4 7.1-6 7.5-4.7 8.2-10.5 8.7-13.8 0.2-1.7-0.9-4-2.4-6.3 3.3-0.7 8.5-7.7 9.7-10.5m-12 20c-1.6 4.5-6 6-9.3 8-2.4 1.5-3.7 2.8-4.2 3.5 0.9-1.2 3.5-5 3.1-8.5-0.4-4.2-2-7.8-2-10.2 0-2.2 4.7-8.2 5.7-9.4 0.8 1.4 1.7 2.9 2.8 4.3 4.8 6.4 5.5 7.9 3.9 12.3" fill="#221d23" data-fill-palette-color="accent"></path><path d="M41 36.3c5.5 0 5.2-6.5 5.2-6.5v-1.6l-2.6 2.1C43.1 28.4 41 27 41 27s-2.1 1.5-2.6 3.3l-2.6-2.1v1.6s-0.4 6.5 5.2 6.5M54.3 44.1c3.3-2.7-0.1-6.4-0.1-6.4l-0.8-1-0.5 2.5c-1.2-0.9-3.1-0.7-3.1-0.7s-0.6 1.9 0.1 3.2h-2.6l0.8 0.9c0 0.1 2.9 4.2 6.2 1.5M87 44s-2 0-3 1l-0.7-2.4-0.7 1s-3 3.9 0.5 6.3c3.5 2.3 6-1.9 6-1.9l0.7-1-2.5 0.2c0.4-1.4-0.3-3.2-0.3-3.2M63.6 54.6l-0.7 2.4c-1.1-1-3-1-3-1s-0.7 1.8-0.2 3.2l-2.6-0.2 0.7 1s2.6 4.2 6 1.9c3.5-2.3 0.5-6.3 0.5-6.3zM16.8 38.5s2.6 4.2 6 1.9c3.5-2.3 0.5-6.3 0.5-6.3l-0.7-1-0.7 2.4c-1.1-1-3-1-3-1s-0.7 1.8-0.2 3.2l-2.5-0.2zM62 25.8l-0.6 0.8s-2.8 3.1 0 5.4c2.8 2.2 5.2-1.2 5.2-1.2l0.6-0.8H65c0.5-1.1 0-2.7 0-2.7s-1.7-0.1-2.6 0.6zM66.7 42.2l0.6 0.7s2.1 2.9 4.5 1 0-4.6 0-4.6l-0.6-0.7-0.4 1.8c-0.8-0.6-2.3-0.5-2.3-0.5s-0.4 1.4 0 2.3zM76.9 53.9l0.8-0.3-1.5-0.9c0.8-0.5 1.2-1.8 1.2-1.8s-1.1-0.8-2.1-0.7l0.6-1.6-0.8 0.3s-3.3 0.9-2.4 3.7c1 2.6 4.2 1.3 4.2 1.3M49.7 26.3c5.2 0 4.9-6.1 4.9-6.1v-1.5l-2.5 2c-0.4-1.7-2.4-3.1-2.4-3.1s-2 1.4-2.5 3.1l-2.4-2v1.5c0-0.1-0.4 6 4.9 6.1M34.8 44.7l-0.8-0.4 0.5 1.9c-1.1-0.2-2.4 0.6-2.4 0.6s0.3 1.5 1.2 2.2l-1.9 1 0.9 0.4s3.5 1.8 4.8-1.2-2.3-4.5-2.3-4.5M40.2 55.8l-2 1.6c-0.4-1.4-2-2.5-2-2.5s-1.6 1.1-2 2.5l-2-1.6V57s-0.2 5 4 4.9 3.9-5 3.9-5zM78.8 35.5c0.7 0.3 1.4 0.4 1.9 0.3 0.2 0.3 0.4 0.6 0.9 0.9q0.6 0.3 1.5 0.3c0.3 0.5 0.7 1 1.5 1.4 1.5 0.7 2.8 0 2.8 0s-0.2-1.4-1.8-2.2c-0.1 0-0.1-0.1-0.2-0.1 0.5-0.3 0.9-0.8 1.3-1.4 0 0-1-1.1-3.3-0.6 0 0 1-0.6 1.4-2.8 0 0-3.7-0.3-4.3 2.6-0.2-0.2-0.4-0.3-0.7-0.5-1.5-0.7-2.9-0.1-2.9-0.1s0.4 1.5 1.9 2.2M62.3 50.9c0-0.4-0.1-0.9-0.2-1.4 0 0-1.1 0.1-1.8 1.6 0 0 0.1-0.8-1-2 0 0-1.8 2-0.4 3.6-0.2 0-0.4 0.1-0.6 0.2-1.1 0.6-1.3 1.6-1.3 1.6s1 0.4 2.1-0.1c0.5-0.3 0.8-0.6 1-1 0.2 0 0.5 0 0.9-0.2 0.3-0.1 0.6-0.4 0.8-0.8 0.4 0 0.9 0 1.4-0.3 1.1-0.6 1.2-1.6 1.2-1.6s-0.9-0.5-2 0.1c0 0.3 0 0.3-0.1 0.3M21.1 43.8s-1.4-0.3-2.6 0.9l-0.2 0.2c-0.2-0.6-0.5-1.1-0.9-1.7 0 0-1.4 0.6-1.6 2.9 0 0-0.2-1.1-2.2-2.2 0 0-1.5 3.4 1 4.9-0.2 0.1-0.4 0.3-0.7 0.5-1.2 1.2-1 2.7-1 2.7s1.5 0.2 2.7-1c0.6-0.6 0.8-1.2 0.9-1.7 0.3-0.1 0.7-0.2 1.1-0.6 0.3-0.3 0.6-0.8 0.8-1.3 0.5-0.1 1.2-0.4 1.8-1 1.2-1.2 0.9-2.6 0.9-2.6M55.5 33.2s2-1.6 2.3-3.9-0.7-4.1-0.9-4.6-0.6-1.1-0.6-1.1-0.5 0.6-0.8 1-1.5 2.1-1.6 4.4 1.6 4.2 1.6 4.2M64.1 36.6c-1 1.1-0.9 2.8-0.9 2.8s1.7 0 2.8-1 1.3-2.4 1.4-2.7 0.1-0.9 0.1-0.9-0.5 0.1-0.8 0.2-1.6 0.4-2.6 1.6M74 37.6c1 1 2.5 1 2.5 1s0.1-1.5-0.8-2.6c-0.9-1-2.1-1.4-2.4-1.4-0.3-0.1-0.8-0.2-0.8-0.2s0.1 0.5 0.1 0.8c0.2 0.2 0.5 1.4 1.4 2.4M61.8 23.4c1.1-1 1.3-2.4 1.4-2.7s0.1-0.9 0.1-0.9-0.5 0.1-0.8 0.2-1.6 0.4-2.6 1.6c-1 1.1-0.9 2.8-0.9 2.8s1.8 0.1 2.8-1M30.8 25.7c1.1 1 2.8 1 2.8 1s0.1-1.7-0.9-2.8-2.3-1.5-2.6-1.6-0.8-0.2-0.8-0.2 0.1 0.5 0.1 0.9c0 0.3 0.3 1.7 1.4 2.7M53 33.6s0.1-1.7-0.9-2.8-2.3-1.5-2.6-1.6-0.8-0.2-0.8-0.2 0.1 0.5 0.1 0.9c0.1 0.3 0.3 1.7 1.4 2.7s2.8 1 2.8 1M30.5 37.1c2.1 1.1 4.7 0.3 4.7 0.3s-0.6-2.7-2.6-3.9c-2-1.3-4.2-1.2-4.8-1.2s-1.4 0.1-1.4 0.1l0.6 1.2c0.3 0.5 1.3 2.4 3.5 3.5M29.3 49c0.9-2.3 0.4-4.4 0.2-4.9-0.1-0.5-0.4-1.3-0.4-1.3s-0.7 0.5-1.1 0.9c-0.4 0.3-2.1 1.7-2.7 4.1-0.6 2.2 0.7 4.6 0.7 4.6s2.5-1.1 3.3-3.4M44 64.4c1.7-0.9 2.6-2.5 2.8-2.9l0.5-1s-0.7-0.1-1.1-0.1-2.2-0.1-3.9 1-2.2 3.2-2.2 3.2 2.2 0.7 3.9-0.2M47.5 35.4s-0.6 0.2-1 0.4-1.9 0.8-2.9 2.4-0.6 3.6-0.6 3.6 2.1-0.3 3.2-1.8 1.2-3.1 1.2-3.5 0.1-1.1 0.1-1.1M48.3 48.8c1.1 0.8 2.6 0.6 2.6 0.6s-0.1-1.5-1.1-2.4-2.2-1.1-2.5-1.1-0.8-0.1-0.8-0.1 0.1 0.5 0.2 0.7c0.1 0.4 0.5 1.5 1.6 2.3M80.3 29c0.1-1.5-0.5-2.7-0.7-3s-0.5-0.8-0.5-0.8-0.3 0.4-0.5 0.7-1 1.4-1 3c0 1.5 1.2 2.8 1.2 2.8s1.3-1.2 1.5-2.7M40.4 24.9c1.2 1 2.9 0.8 2.9 0.8s0-1.7-1.1-2.8-2.4-1.3-2.8-1.4c-0.3-0.1-0.9-0.1-0.9-0.1s0.1 0.5 0.2 0.9c0.2 0.3 0.6 1.7 1.7 2.6M79.1 43.7s-0.3 0.4-0.5 0.7-1 1.4-1 3c0 1.5 1.2 2.8 1.2 2.8s1.3-1.1 1.4-2.6-0.5-2.7-0.7-3-0.4-0.9-0.4-0.9M82.9 53c-1.5 0.3-2.4 1.8-2.4 1.8s1.4 1 2.9 0.8 2.5-1.1 2.8-1.4c0.3-0.2 0.6-0.6 0.6-0.6s-0.5-0.2-0.8-0.4c-0.3-0.1-1.6-0.6-3.1-0.2M77.1 57.3c-1.1-1.1-2.8-1-2.8-1s-0.1 1.7 0.9 2.9c1 1.1 2.4 1.5 2.7 1.6s0.9 0.2 0.9 0.2-0.1-0.5-0.2-0.9-0.4-1.7-1.5-2.8M9 46.5c-1.4-0.5-2.8-0.2-3.1-0.2-0.4 0.1-0.9 0.2-0.9 0.2s0.3 0.4 0.5 0.7 1.1 1.3 2.6 1.7 3-0.4 3-0.4-0.7-1.5-2.1-2M94.2 41.9c-0.3-0.1-1.7-0.4-3.1 0.2S89 44.2 89 44.2s1.5 0.8 3 0.4 2.4-1.5 2.6-1.7c0.2-0.3 0.5-0.7 0.5-0.7zM16.1 55c-1.4 0.6-2.2 1.7-2.4 2s-0.5 0.7-0.5 0.7 0.5 0.1 0.9 0.1c0.3 0 1.7 0.2 3.1-0.5s1.9-2.3 1.9-2.3-1.6-0.6-3 0" fill="#221d23" data-fill-palette-color="accent"></path></svg></g></svg></g></svg></g></svg></g><g><path d="M245.816 0c68.262 0 123.6 55.338 123.6 123.6 0 68.262-55.338 123.6-123.6 123.6-61.173 0-111.966-44.44-121.857-102.796h1.176c9.878 57.713 60.15 101.637 120.681 101.637 67.622 0 122.441-54.818 122.44-122.441 0-67.622-54.818-122.441-122.44-122.441-60.53 0-110.802 43.924-120.681 101.637l-1.176 0c9.891-58.357 60.684-102.796 121.857-102.796z" fill="#6b7280" stroke="transparent" data-fill-palette-color="tertiary"></path></g></svg></g><defs></defs></svg><rect width="395.52" height="247.2" fill="none" stroke="none" visibility="hidden"></rect></g></svg></g></svg>